<svg width="22" height="21" viewBox="0 0 22 21" fill="none" xmlns="http://www.w3.org/2000/svg">
<path d="M0 0.814999C0 0.625369 0.0755821 0.443506 0.210119 0.309417C0.344656 0.175329 0.527127 0.0999985 0.717391 0.0999985H2.86957C3.02959 0.100043 3.185 0.15341 3.31109 0.251614C3.43718 0.349818 3.52671 0.487219 3.56543 0.641968L4.14652 2.96H20.8043C20.9133 2.96003 21.0208 2.9848 21.1188 3.03243C21.2167 3.08006 21.3025 3.14931 21.3695 3.2349C21.4366 3.3205 21.4832 3.4202 21.5059 3.52643C21.5285 3.63267 21.5266 3.74265 21.5002 3.84803L19.348 12.428C19.3093 12.5828 19.2198 12.7202 19.0937 12.8184C18.9676 12.9166 18.8122 12.97 18.6522 12.97H5.73913C5.57911 12.97 5.42369 12.9166 5.2976 12.8184C5.17151 12.7202 5.08199 12.5828 5.04326 12.428L2.31 1.53H0.717391C0.527127 1.53 0.344656 1.45467 0.210119 1.32058C0.0755821 1.18649 0 1.00463 0 0.814999ZM4.50522 4.39L6.2987 11.54H18.0926L19.8861 4.39H4.50522ZM7.17391 15.83C6.79338 15.83 6.42844 15.9807 6.15937 16.2488C5.89029 16.517 5.73913 16.8807 5.73913 17.26C5.73913 17.6393 5.89029 18.003 6.15937 18.2712C6.42844 18.5393 6.79338 18.69 7.17391 18.69C7.55444 18.69 7.91938 18.5393 8.18846 18.2712C8.45753 18.003 8.6087 17.6393 8.6087 17.26C8.6087 16.8807 8.45753 16.517 8.18846 16.2488C7.91938 15.9807 7.55444 15.83 7.17391 15.83ZM4.30435 17.26C4.30435 16.5015 4.60668 15.774 5.14482 15.2377C5.68297 14.7013 6.41286 14.4 7.17391 14.4C7.93497 14.4 8.66485 14.7013 9.203 15.2377C9.74115 15.774 10.0435 16.5015 10.0435 17.26C10.0435 18.0185 9.74115 18.746 9.203 19.2823C8.66485 19.8187 7.93497 20.12 7.17391 20.12C6.41286 20.12 5.68297 19.8187 5.14482 19.2823C4.60668 18.746 4.30435 18.0185 4.30435 17.26ZM17.2174 15.83C16.8369 15.83 16.4719 15.9807 16.2028 16.2488C15.9338 16.517 15.7826 16.8807 15.7826 17.26C15.7826 17.6393 15.9338 18.003 16.2028 18.2712C16.4719 18.5393 16.8369 18.69 17.2174 18.69C17.5979 18.69 17.9629 18.5393 18.2319 18.2712C18.501 18.003 18.6522 17.6393 18.6522 17.26C18.6522 16.8807 18.501 16.517 18.2319 16.2488C17.9629 15.9807 17.5979 15.83 17.2174 15.83ZM14.3478 17.26C14.3478 16.5015 14.6502 15.774 15.1883 15.2377C15.7264 14.7013 16.4563 14.4 17.2174 14.4C17.9784 14.4 18.7083 14.7013 19.2465 15.2377C19.7846 15.774 20.087 16.5015 20.087 17.26C20.087 18.0185 19.7846 18.746 19.2465 19.2823C18.7083 19.8187 17.9784 20.12 17.2174 20.12C16.4563 20.12 15.7264 19.8187 15.1883 19.2823C14.6502 18.746 14.3478 18.0185 14.3478 17.26Z" fill="white"/>
<path d="M0 0.814999C0 0.625369 0.0755821 0.443506 0.210119 0.309417C0.344656 0.175329 0.527127 0.0999985 0.717391 0.0999985H2.86957C3.02959 0.100043 3.185 0.15341 3.31109 0.251614C3.43718 0.349818 3.52671 0.487219 3.56543 0.641968L4.14652 2.96H20.8043C20.9133 2.96003 21.0208 2.9848 21.1188 3.03243C21.2167 3.08006 21.3025 3.14931 21.3695 3.2349C21.4366 3.3205 21.4832 3.4202 21.5059 3.52643C21.5285 3.63267 21.5266 3.74265 21.5002 3.84803L19.348 12.428C19.3093 12.5828 19.2198 12.7202 19.0937 12.8184C18.9676 12.9166 18.8122 12.97 18.6522 12.97H5.73913C5.57911 12.97 5.42369 12.9166 5.2976 12.8184C5.17151 12.7202 5.08199 12.5828 5.04326 12.428L2.31 1.53H0.717391C0.527127 1.53 0.344656 1.45467 0.210119 1.32058C0.0755821 1.18649 0 1.00463 0 0.814999ZM4.50522 4.39L6.2987 11.54H18.0926L19.8861 4.39H4.50522ZM7.17391 15.83C6.79338 15.83 6.42844 15.9807 6.15937 16.2488C5.89029 16.517 5.73913 16.8807 5.73913 17.26C5.73913 17.6393 5.89029 18.003 6.15937 18.2712C6.42844 18.5393 6.79338 18.69 7.17391 18.69C7.55444 18.69 7.91938 18.5393 8.18846 18.2712C8.45753 18.003 8.6087 17.6393 8.6087 17.26C8.6087 16.8807 8.45753 16.517 8.18846 16.2488C7.91938 15.9807 7.55444 15.83 7.17391 15.83ZM4.30435 17.26C4.30435 16.5015 4.60668 15.774 5.14482 15.2377C5.68297 14.7013 6.41286 14.4 7.17391 14.4C7.93497 14.4 8.66485 14.7013 9.203 15.2377C9.74115 15.774 10.0435 16.5015 10.0435 17.26C10.0435 18.0185 9.74115 18.746 9.203 19.2823C8.66485 19.8187 7.93497 20.12 7.17391 20.12C6.41286 20.12 5.68297 19.8187 5.14482 19.2823C4.60668 18.746 4.30435 18.0185 4.30435 17.26ZM17.2174 15.83C16.8369 15.83 16.4719 15.9807 16.2028 16.2488C15.9338 16.517 15.7826 16.8807 15.7826 17.26C15.7826 17.6393 15.9338 18.003 16.2028 18.2712C16.4719 18.5393 16.8369 18.69 17.2174 18.69C17.5979 18.69 17.9629 18.5393 18.2319 18.2712C18.501 18.003 18.6522 17.6393 18.6522 17.26C18.6522 16.8807 18.501 16.517 18.2319 16.2488C17.9629 15.9807 17.5979 15.83 17.2174 15.83ZM14.3478 17.26C14.3478 16.5015 14.6502 15.774 15.1883 15.2377C15.7264 14.7013 16.4563 14.4 17.2174 14.4C17.9784 14.4 18.7083 14.7013 19.2465 15.2377C19.7846 15.774 20.087 16.5015 20.087 17.26C20.087 18.0185 19.7846 18.746 19.2465 19.2823C18.7083 19.8187 17.9784 20.12 17.2174 20.12C16.4563 20.12 15.7264 19.8187 15.1883 19.2823C14.6502 18.746 14.3478 18.0185 14.3478 17.26Z" fill="url(#paint0_linear_38_184)"/>
<defs>
<linearGradient id="paint0_linear_38_184" x1="-0.56563" y1="27.2408" x2="21.1183" y2="20.3637" gradientUnits="userSpaceOnUse">
<stop stop-color="#0D748B"/>
<stop offset="1" stop-color="#1A0B73"/>
</linearGradient>
</defs>
</svg>
